<?xml version="1.0" standalone="no"?>
<!DOCTYPE svg PUBLIC "-//W3C//DTD SVG 20010904//EN"
 "http://www.w3.org/TR/2001/REC-SVG-20010904/DTD/svg10.dtd">
<svg version="1.0" xmlns="http://www.w3.org/2000/svg"
 width="327.000000pt" height="139.000000pt" viewBox="0 0 327.000000 139.000000"
 preserveAspectRatio="xMidYMid meet">
<metadata>
Created by potrace 1.15, written by Peter Selinger 2001-2017
</metadata>
<g transform="translate(0.000000,139.000000) scale(0.100000,-0.100000)"
fill="#000000" stroke="none">
<path d="M2372 1152 c-9 -7 -12 -90 -10 -383 l3 -374 160 -5 c88 -3 156 -7
150 -8 -5 -1 -115 -18 -244 -37 -230 -33 -268 -44 -238 -71 7 -6 188 -22 452
-38 523 -32 495 -31 495 -7 0 25 -9 26 -378 48 -173 9 -306 21 -295 25 10 4
132 23 272 42 154 22 258 41 262 48 19 30 -12 38 -141 38 -70 0 -201 3 -291 6
l-164 7 2 331 2 331 277 3 276 2 -6 -62 c-3 -35 -11 -155 -17 -268 -6 -113
-14 -208 -18 -211 -3 -4 -94 -4 -202 -2 l-197 6 4 36 c2 20 9 106 14 191 6 85
12 155 13 156 7 7 267 -52 267 -61 0 -5 -10 -47 -22 -92 -17 -63 -26 -82 -38
-79 -8 3 -41 12 -72 20 l-58 16 21 52 c11 28 18 52 17 53 -2 1 -12 5 -24 9
-18 5 -23 -2 -43 -65 -13 -40 -19 -75 -14 -80 15 -15 213 -63 222 -53 5 5 24
64 44 131 25 91 31 125 23 132 -6 6 -89 24 -184 42 -134 26 -175 30 -181 21
-12 -20 -35 -462 -24 -473 5 -5 110 -8 249 -7 l239 3 19 309 c15 259 16 310 5
317 -18 11 -610 12 -627 1z"/>
<path d="M110 700 l0 -290 35 0 35 0 0 125 0 125 185 0 185 0 0 35 0 35 -185
0 -185 0 0 95 0 95 230 0 230 0 0 35 0 35 -265 0 -265 0 0 -290z"/>
<path d="M700 698 l0 -293 262 3 263 2 28 30 27 30 0 228 c0 200 -3 230 -18
248 -33 41 -51 44 -311 44 l-251 0 0 -292z m514 206 c12 -31 7 -409 -6 -422
-17 -17 -419 -17 -436 0 -13 13 -18 391 -6 422 5 14 35 16 224 16 189 0 219
-2 224 -16z"/>
<path d="M1435 981 c-11 -5 -29 -19 -40 -31 -18 -20 -20 -39 -23 -239 -2 -129
1 -228 7 -243 21 -55 36 -58 315 -61 l256 -2 0 32 0 33 -252 2 -253 3 0 220 0
220 253 3 252 2 0 35 0 35 -247 -1 c-137 0 -257 -4 -268 -8z"/>
</g>
</svg>
